<svg xmlns="http://www.w3.org/2000/svg" viewBox="0 0 226.264 106.264">
  <defs>
    <style>
      .cls-1 {
        fill: #007aff;
      }
    </style>
  </defs>
  <g id="Group_2559" data-name="Group 2559" transform="translate(-193.567 -852)">
    <circle id="Ellipse_25" data-name="Ellipse 25" class="cls-1" cx="1" cy="1" r="1" transform="translate(297.831 852)"/>
    <circle id="Ellipse_25-2" data-name="Ellipse 25" class="cls-1" cx="1" cy="1" r="1" transform="translate(305.831 852)"/>
    <circle id="Ellipse_25-3" data-name="Ellipse 25" class="cls-1" cx="1" cy="1" r="1" transform="translate(313.831 852)"/>
    <circle id="Ellipse_25-4" data-name="Ellipse 25" class="cls-1" cx="1" cy="1" r="1" transform="translate(321.831 852)"/>
    <circle id="Ellipse_25-5" data-name="Ellipse 25" class="cls-1" cx="1" cy="1" r="1" transform="translate(329.831 852)"/>
    <circle id="Ellipse_25-6" data-name="Ellipse 25" class="cls-1" cx="1" cy="1" r="1" transform="translate(337.831 852)"/>
    <circle id="Ellipse_25-7" data-name="Ellipse 25" class="cls-1" cx="1" cy="1" r="1" transform="translate(345.831 852)"/>
    <circle id="Ellipse_25-8" data-name="Ellipse 25" class="cls-1" cx="1" cy="1" r="1" transform="translate(353.831 852)"/>
    <circle id="Ellipse_25-9" data-name="Ellipse 25" class="cls-1" cx="1" cy="1" r="1" transform="translate(361.831 852)"/>
    <circle id="Ellipse_25-10" data-name="Ellipse 25" class="cls-1" cx="1" cy="1" r="1" transform="translate(369.831 852)"/>
    <circle id="Ellipse_25-11" data-name="Ellipse 25" class="cls-1" cx="1" cy="1" r="1" transform="translate(377.831 852)"/>
    <circle id="Ellipse_25-12" data-name="Ellipse 25" class="cls-1" cx="1" cy="1" r="1" transform="translate(385.831 852)"/>
    <circle id="Ellipse_25-13" data-name="Ellipse 25" class="cls-1" cx="1" cy="1" r="1" transform="translate(393.831 852)"/>
    <circle id="Ellipse_25-14" data-name="Ellipse 25" class="cls-1" cx="1" cy="1" r="1" transform="translate(401.831 852)"/>
    <circle id="Ellipse_25-15" data-name="Ellipse 25" class="cls-1" cx="1" cy="1" r="1" transform="translate(409.831 852)"/>
    <circle id="Ellipse_25-16" data-name="Ellipse 25" class="cls-1" cx="1" cy="1" r="1" transform="translate(417.831 852)"/>
    <circle id="Ellipse_25-17" data-name="Ellipse 25" class="cls-1" cx="1" cy="1" r="1" transform="translate(288.353 861.479)"/>
    <circle id="Ellipse_25-18" data-name="Ellipse 25" class="cls-1" cx="1" cy="1" r="1" transform="translate(296.353 861.479)"/>
    <circle id="Ellipse_25-19" data-name="Ellipse 25" class="cls-1" cx="1" cy="1" r="1" transform="translate(304.353 861.479)"/>
    <circle id="Ellipse_25-20" data-name="Ellipse 25" class="cls-1" cx="1" cy="1" r="1" transform="translate(312.353 861.479)"/>
    <circle id="Ellipse_25-21" data-name="Ellipse 25" class="cls-1" cx="1" cy="1" r="1" transform="translate(320.353 861.479)"/>
    <circle id="Ellipse_25-22" data-name="Ellipse 25" class="cls-1" cx="1" cy="1" r="1" transform="translate(328.353 861.479)"/>
    <circle id="Ellipse_25-23" data-name="Ellipse 25" class="cls-1" cx="1" cy="1" r="1" transform="translate(336.353 861.479)"/>
    <circle id="Ellipse_25-24" data-name="Ellipse 25" class="cls-1" cx="1" cy="1" r="1" transform="translate(344.353 861.479)"/>
    <circle id="Ellipse_25-25" data-name="Ellipse 25" class="cls-1" cx="1" cy="1" r="1" transform="translate(352.353 861.479)"/>
    <circle id="Ellipse_25-26" data-name="Ellipse 25" class="cls-1" cx="1" cy="1" r="1" transform="translate(360.353 861.479)"/>
    <circle id="Ellipse_25-27" data-name="Ellipse 25" class="cls-1" cx="1" cy="1" r="1" transform="translate(368.353 861.479)"/>
    <circle id="Ellipse_25-28" data-name="Ellipse 25" class="cls-1" cx="1" cy="1" r="1" transform="translate(376.353 861.479)"/>
    <circle id="Ellipse_25-29" data-name="Ellipse 25" class="cls-1" cx="1" cy="1" r="1" transform="translate(384.353 861.479)"/>
    <circle id="Ellipse_25-30" data-name="Ellipse 25" class="cls-1" cx="1" cy="1" r="1" transform="translate(392.353 861.479)"/>
    <circle id="Ellipse_25-31" data-name="Ellipse 25" class="cls-1" cx="1" cy="1" r="1" transform="translate(400.353 861.479)"/>
    <circle id="Ellipse_25-32" data-name="Ellipse 25" class="cls-1" cx="1" cy="1" r="1" transform="translate(408.353 861.479)"/>
    <circle id="Ellipse_25-33" data-name="Ellipse 25" class="cls-1" cx="1" cy="1" r="1" transform="translate(278.874 870.957)"/>
    <circle id="Ellipse_25-34" data-name="Ellipse 25" class="cls-1" cx="1" cy="1" r="1" transform="translate(286.874 870.957)"/>
    <circle id="Ellipse_25-35" data-name="Ellipse 25" class="cls-1" cx="1" cy="1" r="1" transform="translate(294.874 870.957)"/>
    <circle id="Ellipse_25-36" data-name="Ellipse 25" class="cls-1" cx="1" cy="1" r="1" transform="translate(302.874 870.957)"/>
    <circle id="Ellipse_25-37" data-name="Ellipse 25" class="cls-1" cx="1" cy="1" r="1" transform="translate(310.874 870.957)"/>
    <circle id="Ellipse_25-38" data-name="Ellipse 25" class="cls-1" cx="1" cy="1" r="1" transform="translate(318.874 870.957)"/>
    <circle id="Ellipse_25-39" data-name="Ellipse 25" class="cls-1" cx="1" cy="1" r="1" transform="translate(326.874 870.957)"/>
    <circle id="Ellipse_25-40" data-name="Ellipse 25" class="cls-1" cx="1" cy="1" r="1" transform="translate(334.874 870.957)"/>
    <circle id="Ellipse_25-41" data-name="Ellipse 25" class="cls-1" cx="1" cy="1" r="1" transform="translate(342.874 870.957)"/>
    <circle id="Ellipse_25-42" data-name="Ellipse 25" class="cls-1" cx="1" cy="1" r="1" transform="translate(350.874 870.957)"/>
    <circle id="Ellipse_25-43" data-name="Ellipse 25" class="cls-1" cx="1" cy="1" r="1" transform="translate(358.874 870.957)"/>
    <circle id="Ellipse_25-44" data-name="Ellipse 25" class="cls-1" cx="1" cy="1" r="1" transform="translate(366.874 870.957)"/>
    <circle id="Ellipse_25-45" data-name="Ellipse 25" class="cls-1" cx="1" cy="1" r="1" transform="translate(374.874 870.957)"/>
    <circle id="Ellipse_25-46" data-name="Ellipse 25" class="cls-1" cx="1" cy="1" r="1" transform="translate(382.874 870.957)"/>
    <circle id="Ellipse_25-47" data-name="Ellipse 25" class="cls-1" cx="1" cy="1" r="1" transform="translate(390.874 870.957)"/>
    <circle id="Ellipse_25-48" data-name="Ellipse 25" class="cls-1" cx="1" cy="1" r="1" transform="translate(398.874 870.957)"/>
    <circle id="Ellipse_25-49" data-name="Ellipse 25" class="cls-1" cx="1" cy="1" r="1" transform="translate(269.396 880.436)"/>
    <circle id="Ellipse_25-50" data-name="Ellipse 25" class="cls-1" cx="1" cy="1" r="1" transform="translate(277.396 880.436)"/>
    <circle id="Ellipse_25-51" data-name="Ellipse 25" class="cls-1" cx="1" cy="1" r="1" transform="translate(285.396 880.436)"/>
    <circle id="Ellipse_25-52" data-name="Ellipse 25" class="cls-1" cx="1" cy="1" r="1" transform="translate(293.396 880.436)"/>
    <circle id="Ellipse_25-53" data-name="Ellipse 25" class="cls-1" cx="1" cy="1" r="1" transform="translate(301.396 880.436)"/>
    <circle id="Ellipse_25-54" data-name="Ellipse 25" class="cls-1" cx="1" cy="1" r="1" transform="translate(309.396 880.436)"/>
    <circle id="Ellipse_25-55" data-name="Ellipse 25" class="cls-1" cx="1" cy="1" r="1" transform="translate(317.396 880.436)"/>
    <circle id="Ellipse_25-56" data-name="Ellipse 25" class="cls-1" cx="1" cy="1" r="1" transform="translate(325.396 880.436)"/>
    <circle id="Ellipse_25-57" data-name="Ellipse 25" class="cls-1" cx="1" cy="1" r="1" transform="translate(333.396 880.436)"/>
    <circle id="Ellipse_25-58" data-name="Ellipse 25" class="cls-1" cx="1" cy="1" r="1" transform="translate(341.396 880.436)"/>
    <circle id="Ellipse_25-59" data-name="Ellipse 25" class="cls-1" cx="1" cy="1" r="1" transform="translate(349.396 880.436)"/>
    <circle id="Ellipse_25-60" data-name="Ellipse 25" class="cls-1" cx="1" cy="1" r="1" transform="translate(357.396 880.436)"/>
    <circle id="Ellipse_25-61" data-name="Ellipse 25" class="cls-1" cx="1" cy="1" r="1" transform="translate(365.396 880.436)"/>
    <circle id="Ellipse_25-62" data-name="Ellipse 25" class="cls-1" cx="1" cy="1" r="1" transform="translate(373.396 880.436)"/>
    <circle id="Ellipse_25-63" data-name="Ellipse 25" class="cls-1" cx="1" cy="1" r="1" transform="translate(381.396 880.436)"/>
    <circle id="Ellipse_25-64" data-name="Ellipse 25" class="cls-1" cx="1" cy="1" r="1" transform="translate(389.396 880.436)"/>
    <circle id="Ellipse_25-65" data-name="Ellipse 25" class="cls-1" cx="1" cy="1" r="1" transform="translate(259.917 889.914)"/>
    <circle id="Ellipse_25-66" data-name="Ellipse 25" class="cls-1" cx="1" cy="1" r="1" transform="translate(267.917 889.914)"/>
    <circle id="Ellipse_25-67" data-name="Ellipse 25" class="cls-1" cx="1" cy="1" r="1" transform="translate(275.917 889.914)"/>
    <circle id="Ellipse_25-68" data-name="Ellipse 25" class="cls-1" cx="1" cy="1" r="1" transform="translate(283.917 889.914)"/>
    <circle id="Ellipse_25-69" data-name="Ellipse 25" class="cls-1" cx="1" cy="1" r="1" transform="translate(291.917 889.914)"/>
    <circle id="Ellipse_25-70" data-name="Ellipse 25" class="cls-1" cx="1" cy="1" r="1" transform="translate(299.917 889.914)"/>
    <circle id="Ellipse_25-71" data-name="Ellipse 25" class="cls-1" cx="1" cy="1" r="1" transform="translate(307.917 889.914)"/>
    <circle id="Ellipse_25-72" data-name="Ellipse 25" class="cls-1" cx="1" cy="1" r="1" transform="translate(315.917 889.914)"/>
    <circle id="Ellipse_25-73" data-name="Ellipse 25" class="cls-1" cx="1" cy="1" r="1" transform="translate(323.917 889.914)"/>
    <circle id="Ellipse_25-74" data-name="Ellipse 25" class="cls-1" cx="1" cy="1" r="1" transform="translate(331.917 889.914)"/>
    <circle id="Ellipse_25-75" data-name="Ellipse 25" class="cls-1" cx="1" cy="1" r="1" transform="translate(339.917 889.914)"/>
    <circle id="Ellipse_25-76" data-name="Ellipse 25" class="cls-1" cx="1" cy="1" r="1" transform="translate(347.917 889.914)"/>
    <circle id="Ellipse_25-77" data-name="Ellipse 25" class="cls-1" cx="1" cy="1" r="1" transform="translate(355.917 889.914)"/>
    <circle id="Ellipse_25-78" data-name="Ellipse 25" class="cls-1" cx="1" cy="1" r="1" transform="translate(363.917 889.914)"/>
    <circle id="Ellipse_25-79" data-name="Ellipse 25" class="cls-1" cx="1" cy="1" r="1" transform="translate(371.917 889.914)"/>
    <circle id="Ellipse_25-80" data-name="Ellipse 25" class="cls-1" cx="1" cy="1" r="1" transform="translate(379.917 889.914)"/>
    <circle id="Ellipse_25-81" data-name="Ellipse 25" class="cls-1" cx="1" cy="1" r="1" transform="translate(250.438 899.393)"/>
    <circle id="Ellipse_25-82" data-name="Ellipse 25" class="cls-1" cx="1" cy="1" r="1" transform="translate(258.438 899.393)"/>
    <circle id="Ellipse_25-83" data-name="Ellipse 25" class="cls-1" cx="1" cy="1" r="1" transform="translate(266.438 899.393)"/>
    <circle id="Ellipse_25-84" data-name="Ellipse 25" class="cls-1" cx="1" cy="1" r="1" transform="translate(274.438 899.393)"/>
    <circle id="Ellipse_25-85" data-name="Ellipse 25" class="cls-1" cx="1" cy="1" r="1" transform="translate(282.438 899.393)"/>
    <circle id="Ellipse_25-86" data-name="Ellipse 25" class="cls-1" cx="1" cy="1" r="1" transform="translate(290.438 899.393)"/>
    <circle id="Ellipse_25-87" data-name="Ellipse 25" class="cls-1" cx="1" cy="1" r="1" transform="translate(298.438 899.393)"/>
    <circle id="Ellipse_25-88" data-name="Ellipse 25" class="cls-1" cx="1" cy="1" r="1" transform="translate(306.438 899.393)"/>
    <circle id="Ellipse_25-89" data-name="Ellipse 25" class="cls-1" cx="1" cy="1" r="1" transform="translate(314.438 899.393)"/>
    <circle id="Ellipse_25-90" data-name="Ellipse 25" class="cls-1" cx="1" cy="1" r="1" transform="translate(322.438 899.393)"/>
    <circle id="Ellipse_25-91" data-name="Ellipse 25" class="cls-1" cx="1" cy="1" r="1" transform="translate(330.438 899.393)"/>
    <circle id="Ellipse_25-92" data-name="Ellipse 25" class="cls-1" cx="1" cy="1" r="1" transform="translate(338.438 899.393)"/>
    <circle id="Ellipse_25-93" data-name="Ellipse 25" class="cls-1" cx="1" cy="1" r="1" transform="translate(346.438 899.393)"/>
    <circle id="Ellipse_25-94" data-name="Ellipse 25" class="cls-1" cx="1" cy="1" r="1" transform="translate(354.438 899.393)"/>
    <circle id="Ellipse_25-95" data-name="Ellipse 25" class="cls-1" cx="1" cy="1" r="1" transform="translate(362.438 899.393)"/>
    <circle id="Ellipse_25-96" data-name="Ellipse 25" class="cls-1" cx="1" cy="1" r="1" transform="translate(370.438 899.393)"/>
    <circle id="Ellipse_25-97" data-name="Ellipse 25" class="cls-1" cx="1" cy="1" r="1" transform="translate(240.96 908.871)"/>
    <circle id="Ellipse_25-98" data-name="Ellipse 25" class="cls-1" cx="1" cy="1" r="1" transform="translate(248.96 908.871)"/>
    <circle id="Ellipse_25-99" data-name="Ellipse 25" class="cls-1" cx="1" cy="1" r="1" transform="translate(256.96 908.871)"/>
    <circle id="Ellipse_25-100" data-name="Ellipse 25" class="cls-1" cx="1" cy="1" r="1" transform="translate(264.96 908.871)"/>
    <circle id="Ellipse_25-101" data-name="Ellipse 25" class="cls-1" cx="1" cy="1" r="1" transform="translate(272.96 908.871)"/>
    <circle id="Ellipse_25-102" data-name="Ellipse 25" class="cls-1" cx="1" cy="1" r="1" transform="translate(280.96 908.871)"/>
    <circle id="Ellipse_25-103" data-name="Ellipse 25" class="cls-1" cx="1" cy="1" r="1" transform="translate(288.96 908.871)"/>
    <circle id="Ellipse_25-104" data-name="Ellipse 25" class="cls-1" cx="1" cy="1" r="1" transform="translate(296.96 908.871)"/>
    <circle id="Ellipse_25-105" data-name="Ellipse 25" class="cls-1" cx="1" cy="1" r="1" transform="translate(304.96 908.871)"/>
    <circle id="Ellipse_25-106" data-name="Ellipse 25" class="cls-1" cx="1" cy="1" r="1" transform="translate(312.96 908.871)"/>
    <circle id="Ellipse_25-107" data-name="Ellipse 25" class="cls-1" cx="1" cy="1" r="1" transform="translate(320.96 908.871)"/>
    <circle id="Ellipse_25-108" data-name="Ellipse 25" class="cls-1" cx="1" cy="1" r="1" transform="translate(328.96 908.871)"/>
    <circle id="Ellipse_25-109" data-name="Ellipse 25" class="cls-1" cx="1" cy="1" r="1" transform="translate(336.96 908.871)"/>
    <circle id="Ellipse_25-110" data-name="Ellipse 25" class="cls-1" cx="1" cy="1" r="1" transform="translate(344.96 908.871)"/>
    <circle id="Ellipse_25-111" data-name="Ellipse 25" class="cls-1" cx="1" cy="1" r="1" transform="translate(352.96 908.871)"/>
    <circle id="Ellipse_25-112" data-name="Ellipse 25" class="cls-1" cx="1" cy="1" r="1" transform="translate(360.96 908.871)"/>
    <circle id="Ellipse_25-113" data-name="Ellipse 25" class="cls-1" cx="1" cy="1" r="1" transform="translate(231.481 918.35)"/>
    <circle id="Ellipse_25-114" data-name="Ellipse 25" class="cls-1" cx="1" cy="1" r="1" transform="translate(239.481 918.35)"/>
    <circle id="Ellipse_25-115" data-name="Ellipse 25" class="cls-1" cx="1" cy="1" r="1" transform="translate(247.481 918.35)"/>
    <circle id="Ellipse_25-116" data-name="Ellipse 25" class="cls-1" cx="1" cy="1" r="1" transform="translate(255.481 918.35)"/>
    <circle id="Ellipse_25-117" data-name="Ellipse 25" class="cls-1" cx="1" cy="1" r="1" transform="translate(263.481 918.35)"/>
    <circle id="Ellipse_25-118" data-name="Ellipse 25" class="cls-1" cx="1" cy="1" r="1" transform="translate(271.481 918.35)"/>
    <circle id="Ellipse_25-119" data-name="Ellipse 25" class="cls-1" cx="1" cy="1" r="1" transform="translate(279.481 918.35)"/>
    <circle id="Ellipse_25-120" data-name="Ellipse 25" class="cls-1" cx="1" cy="1" r="1" transform="translate(287.481 918.35)"/>
    <circle id="Ellipse_25-121" data-name="Ellipse 25" class="cls-1" cx="1" cy="1" r="1" transform="translate(295.481 918.35)"/>
    <circle id="Ellipse_25-122" data-name="Ellipse 25" class="cls-1" cx="1" cy="1" r="1" transform="translate(303.481 918.35)"/>
    <circle id="Ellipse_25-123" data-name="Ellipse 25" class="cls-1" cx="1" cy="1" r="1" transform="translate(311.481 918.35)"/>
    <circle id="Ellipse_25-124" data-name="Ellipse 25" class="cls-1" cx="1" cy="1" r="1" transform="translate(319.481 918.35)"/>
    <circle id="Ellipse_25-125" data-name="Ellipse 25" class="cls-1" cx="1" cy="1" r="1" transform="translate(327.481 918.35)"/>
    <circle id="Ellipse_25-126" data-name="Ellipse 25" class="cls-1" cx="1" cy="1" r="1" transform="translate(335.481 918.35)"/>
    <circle id="Ellipse_25-127" data-name="Ellipse 25" class="cls-1" cx="1" cy="1" r="1" transform="translate(343.481 918.35)"/>
    <circle id="Ellipse_25-128" data-name="Ellipse 25" class="cls-1" cx="1" cy="1" r="1" transform="translate(351.481 918.35)"/>
    <circle id="Ellipse_25-129" data-name="Ellipse 25" class="cls-1" cx="1" cy="1" r="1" transform="translate(222.003 927.828)"/>
    <circle id="Ellipse_25-130" data-name="Ellipse 25" class="cls-1" cx="1" cy="1" r="1" transform="translate(230.003 927.828)"/>
    <circle id="Ellipse_25-131" data-name="Ellipse 25" class="cls-1" cx="1" cy="1" r="1" transform="translate(238.003 927.828)"/>
    <circle id="Ellipse_25-132" data-name="Ellipse 25" class="cls-1" cx="1" cy="1" r="1" transform="translate(246.003 927.828)"/>
    <circle id="Ellipse_25-133" data-name="Ellipse 25" class="cls-1" cx="1" cy="1" r="1" transform="translate(254.003 927.828)"/>
    <circle id="Ellipse_25-134" data-name="Ellipse 25" class="cls-1" cx="1" cy="1" r="1" transform="translate(262.003 927.828)"/>
    <circle id="Ellipse_25-135" data-name="Ellipse 25" class="cls-1" cx="1" cy="1" r="1" transform="translate(270.003 927.828)"/>
    <circle id="Ellipse_25-136" data-name="Ellipse 25" class="cls-1" cx="1" cy="1" r="1" transform="translate(278.003 927.828)"/>
    <circle id="Ellipse_25-137" data-name="Ellipse 25" class="cls-1" cx="1" cy="1" r="1" transform="translate(286.003 927.828)"/>
    <circle id="Ellipse_25-138" data-name="Ellipse 25" class="cls-1" cx="1" cy="1" r="1" transform="translate(294.003 927.828)"/>
    <circle id="Ellipse_25-139" data-name="Ellipse 25" class="cls-1" cx="1" cy="1" r="1" transform="translate(302.003 927.828)"/>
    <circle id="Ellipse_25-140" data-name="Ellipse 25" class="cls-1" cx="1" cy="1" r="1" transform="translate(310.003 927.828)"/>
    <circle id="Ellipse_25-141" data-name="Ellipse 25" class="cls-1" cx="1" cy="1" r="1" transform="translate(318.003 927.828)"/>
    <circle id="Ellipse_25-142" data-name="Ellipse 25" class="cls-1" cx="1" cy="1" r="1" transform="translate(326.003 927.828)"/>
    <circle id="Ellipse_25-143" data-name="Ellipse 25" class="cls-1" cx="1" cy="1" r="1" transform="translate(334.003 927.828)"/>
    <circle id="Ellipse_25-144" data-name="Ellipse 25" class="cls-1" cx="1" cy="1" r="1" transform="translate(342.003 927.828)"/>
    <circle id="Ellipse_25-145" data-name="Ellipse 25" class="cls-1" cx="1" cy="1" r="1" transform="translate(212.524 937.307)"/>
    <circle id="Ellipse_25-146" data-name="Ellipse 25" class="cls-1" cx="1" cy="1" r="1" transform="translate(220.524 937.307)"/>
    <circle id="Ellipse_25-147" data-name="Ellipse 25" class="cls-1" cx="1" cy="1" r="1" transform="translate(228.524 937.307)"/>
    <circle id="Ellipse_25-148" data-name="Ellipse 25" class="cls-1" cx="1" cy="1" r="1" transform="translate(236.524 937.307)"/>
    <circle id="Ellipse_25-149" data-name="Ellipse 25" class="cls-1" cx="1" cy="1" r="1" transform="translate(244.524 937.307)"/>
    <circle id="Ellipse_25-150" data-name="Ellipse 25" class="cls-1" cx="1" cy="1" r="1" transform="translate(252.524 937.307)"/>
    <circle id="Ellipse_25-151" data-name="Ellipse 25" class="cls-1" cx="1" cy="1" r="1" transform="translate(260.524 937.307)"/>
    <circle id="Ellipse_25-152" data-name="Ellipse 25" class="cls-1" cx="1" cy="1" r="1" transform="translate(268.524 937.307)"/>
    <circle id="Ellipse_25-153" data-name="Ellipse 25" class="cls-1" cx="1" cy="1" r="1" transform="translate(276.524 937.307)"/>
    <circle id="Ellipse_25-154" data-name="Ellipse 25" class="cls-1" cx="1" cy="1" r="1" transform="translate(284.524 937.307)"/>
    <circle id="Ellipse_25-155" data-name="Ellipse 25" class="cls-1" cx="1" cy="1" r="1" transform="translate(292.524 937.307)"/>
    <circle id="Ellipse_25-156" data-name="Ellipse 25" class="cls-1" cx="1" cy="1" r="1" transform="translate(300.524 937.307)"/>
    <circle id="Ellipse_25-157" data-name="Ellipse 25" class="cls-1" cx="1" cy="1" r="1" transform="translate(308.524 937.307)"/>
    <circle id="Ellipse_25-158" data-name="Ellipse 25" class="cls-1" cx="1" cy="1" r="1" transform="translate(316.524 937.307)"/>
    <circle id="Ellipse_25-159" data-name="Ellipse 25" class="cls-1" cx="1" cy="1" r="1" transform="translate(324.524 937.307)"/>
    <circle id="Ellipse_25-160" data-name="Ellipse 25" class="cls-1" cx="1" cy="1" r="1" transform="translate(332.524 937.307)"/>
    <circle id="Ellipse_25-161" data-name="Ellipse 25" class="cls-1" cx="1" cy="1" r="1" transform="translate(203.046 946.785)"/>
    <circle id="Ellipse_25-162" data-name="Ellipse 25" class="cls-1" cx="1" cy="1" r="1" transform="translate(211.046 946.785)"/>
    <circle id="Ellipse_25-163" data-name="Ellipse 25" class="cls-1" cx="1" cy="1" r="1" transform="translate(219.046 946.785)"/>
    <circle id="Ellipse_25-164" data-name="Ellipse 25" class="cls-1" cx="1" cy="1" r="1" transform="translate(227.046 946.785)"/>
    <circle id="Ellipse_25-165" data-name="Ellipse 25" class="cls-1" cx="1" cy="1" r="1" transform="translate(235.046 946.785)"/>
    <circle id="Ellipse_25-166" data-name="Ellipse 25" class="cls-1" cx="1" cy="1" r="1" transform="translate(243.046 946.785)"/>
    <circle id="Ellipse_25-167" data-name="Ellipse 25" class="cls-1" cx="1" cy="1" r="1" transform="translate(251.046 946.785)"/>
    <circle id="Ellipse_25-168" data-name="Ellipse 25" class="cls-1" cx="1" cy="1" r="1" transform="translate(259.046 946.785)"/>
    <circle id="Ellipse_25-169" data-name="Ellipse 25" class="cls-1" cx="1" cy="1" r="1" transform="translate(267.046 946.785)"/>
    <circle id="Ellipse_25-170" data-name="Ellipse 25" class="cls-1" cx="1" cy="1" r="1" transform="translate(275.046 946.785)"/>
    <circle id="Ellipse_25-171" data-name="Ellipse 25" class="cls-1" cx="1" cy="1" r="1" transform="translate(283.046 946.785)"/>
    <circle id="Ellipse_25-172" data-name="Ellipse 25" class="cls-1" cx="1" cy="1" r="1" transform="translate(291.046 946.785)"/>
    <circle id="Ellipse_25-173" data-name="Ellipse 25" class="cls-1" cx="1" cy="1" r="1" transform="translate(299.046 946.785)"/>
    <circle id="Ellipse_25-174" data-name="Ellipse 25" class="cls-1" cx="1" cy="1" r="1" transform="translate(307.046 946.785)"/>
    <circle id="Ellipse_25-175" data-name="Ellipse 25" class="cls-1" cx="1" cy="1" r="1" transform="translate(315.046 946.785)"/>
    <circle id="Ellipse_25-176" data-name="Ellipse 25" class="cls-1" cx="1" cy="1" r="1" transform="translate(323.046 946.785)"/>
    <circle id="Ellipse_25-177" data-name="Ellipse 25" class="cls-1" cx="1" cy="1" r="1" transform="translate(193.567 956.264)"/>
    <circle id="Ellipse_25-178" data-name="Ellipse 25" class="cls-1" cx="1" cy="1" r="1" transform="translate(201.567 956.264)"/>
    <circle id="Ellipse_25-179" data-name="Ellipse 25" class="cls-1" cx="1" cy="1" r="1" transform="translate(209.567 956.264)"/>
    <circle id="Ellipse_25-180" data-name="Ellipse 25" class="cls-1" cx="1" cy="1" r="1" transform="translate(217.567 956.264)"/>
    <circle id="Ellipse_25-181" data-name="Ellipse 25" class="cls-1" cx="1" cy="1" r="1" transform="translate(225.567 956.264)"/>
    <circle id="Ellipse_25-182" data-name="Ellipse 25" class="cls-1" cx="1" cy="1" r="1" transform="translate(233.567 956.264)"/>
    <circle id="Ellipse_25-183" data-name="Ellipse 25" class="cls-1" cx="1" cy="1" r="1" transform="translate(241.567 956.264)"/>
    <circle id="Ellipse_25-184" data-name="Ellipse 25" class="cls-1" cx="1" cy="1" r="1" transform="translate(249.567 956.264)"/>
    <circle id="Ellipse_25-185" data-name="Ellipse 25" class="cls-1" cx="1" cy="1" r="1" transform="translate(257.567 956.264)"/>
    <circle id="Ellipse_25-186" data-name="Ellipse 25" class="cls-1" cx="1" cy="1" r="1" transform="translate(265.567 956.264)"/>
    <circle id="Ellipse_25-187" data-name="Ellipse 25" class="cls-1" cx="1" cy="1" r="1" transform="translate(273.567 956.264)"/>
    <circle id="Ellipse_25-188" data-name="Ellipse 25" class="cls-1" cx="1" cy="1" r="1" transform="translate(281.567 956.264)"/>
    <circle id="Ellipse_25-189" data-name="Ellipse 25" class="cls-1" cx="1" cy="1" r="1" transform="translate(289.567 956.264)"/>
    <circle id="Ellipse_25-190" data-name="Ellipse 25" class="cls-1" cx="1" cy="1" r="1" transform="translate(297.567 956.264)"/>
    <circle id="Ellipse_25-191" data-name="Ellipse 25" class="cls-1" cx="1" cy="1" r="1" transform="translate(305.567 956.264)"/>
    <circle id="Ellipse_25-192" data-name="Ellipse 25" class="cls-1" cx="1" cy="1" r="1" transform="translate(313.567 956.264)"/>
  </g>
</svg>
