<svg xmlns="http://www.w3.org/2000/svg" xmlns:xlink="http://www.w3.org/1999/xlink" viewBox="0 0 450.5 379.168">
  <defs>
    <style>
      .cls-1 {
        fill: #fff;
      }

      .cls-2 {
        fill: none;
      }

      .cls-3 {
        clip-path: url(#clip-path);
      }

      .cls-4 {
        clip-path: url(#clip-path-2);
      }

      .cls-5 {
        fill: #007aff;
      }
    </style>
    <clipPath id="clip-path">
      <path id="Path_819" data-name="Path 819" class="cls-1" d="M149.721,379.168,450.5,75.564,375.64,0,0,379.168Z" transform="translate(213 279)"/>
    </clipPath>
    <clipPath id="clip-path-2">
      <rect class="cls-2" width="450" height="434"/>
    </clipPath>
  </defs>
  <g id="lines" transform="translate(-213 -279)">
    <g id="Mask_Group_1" data-name="Mask Group 1" class="cls-3">
      <g id="Repeat_Grid_3" data-name="Repeat Grid 3" class="cls-4" transform="translate(213 279)">
        <g transform="translate(-213 -655)">
          <rect id="Rectangle_455" data-name="Rectangle 455" class="cls-5" width="450" height="1" transform="translate(213 655)"/>
        </g>
        <g transform="translate(-213 -646)">
          <rect id="Rectangle_455-2" data-name="Rectangle 455" class="cls-5" width="450" height="1" transform="translate(213 655)"/>
        </g>
        <g transform="translate(-213 -637)">
          <rect id="Rectangle_455-3" data-name="Rectangle 455" class="cls-5" width="450" height="1" transform="translate(213 655)"/>
        </g>
        <g transform="translate(-213 -628)">
          <rect id="Rectangle_455-4" data-name="Rectangle 455" class="cls-5" width="450" height="1" transform="translate(213 655)"/>
        </g>
        <g transform="translate(-213 -619)">
          <rect id="Rectangle_455-5" data-name="Rectangle 455" class="cls-5" width="450" height="1" transform="translate(213 655)"/>
        </g>
        <g transform="translate(-213 -610)">
          <rect id="Rectangle_455-6" data-name="Rectangle 455" class="cls-5" width="450" height="1" transform="translate(213 655)"/>
        </g>
        <g transform="translate(-213 -601)">
          <rect id="Rectangle_455-7" data-name="Rectangle 455" class="cls-5" width="450" height="1" transform="translate(213 655)"/>
        </g>
        <g transform="translate(-213 -592)">
          <rect id="Rectangle_455-8" data-name="Rectangle 455" class="cls-5" width="450" height="1" transform="translate(213 655)"/>
        </g>
        <g transform="translate(-213 -583)">
          <rect id="Rectangle_455-9" data-name="Rectangle 455" class="cls-5" width="450" height="1" transform="translate(213 655)"/>
        </g>
        <g transform="translate(-213 -574)">
          <rect id="Rectangle_455-10" data-name="Rectangle 455" class="cls-5" width="450" height="1" transform="translate(213 655)"/>
        </g>
        <g transform="translate(-213 -565)">
          <rect id="Rectangle_455-11" data-name="Rectangle 455" class="cls-5" width="450" height="1" transform="translate(213 655)"/>
        </g>
        <g transform="translate(-213 -556)">
          <rect id="Rectangle_455-12" data-name="Rectangle 455" class="cls-5" width="450" height="1" transform="translate(213 655)"/>
        </g>
        <g transform="translate(-213 -547)">
          <rect id="Rectangle_455-13" data-name="Rectangle 455" class="cls-5" width="450" height="1" transform="translate(213 655)"/>
        </g>
        <g transform="translate(-213 -538)">
          <rect id="Rectangle_455-14" data-name="Rectangle 455" class="cls-5" width="450" height="1" transform="translate(213 655)"/>
        </g>
        <g transform="translate(-213 -529)">
          <rect id="Rectangle_455-15" data-name="Rectangle 455" class="cls-5" width="450" height="1" transform="translate(213 655)"/>
        </g>
        <g transform="translate(-213 -520)">
          <rect id="Rectangle_455-16" data-name="Rectangle 455" class="cls-5" width="450" height="1" transform="translate(213 655)"/>
        </g>
        <g transform="translate(-213 -511)">
          <rect id="Rectangle_455-17" data-name="Rectangle 455" class="cls-5" width="450" height="1" transform="translate(213 655)"/>
        </g>
        <g transform="translate(-213 -502)">
          <rect id="Rectangle_455-18" data-name="Rectangle 455" class="cls-5" width="450" height="1" transform="translate(213 655)"/>
        </g>
        <g transform="translate(-213 -493)">
          <rect id="Rectangle_455-19" data-name="Rectangle 455" class="cls-5" width="450" height="1" transform="translate(213 655)"/>
        </g>
        <g transform="translate(-213 -484)">
          <rect id="Rectangle_455-20" data-name="Rectangle 455" class="cls-5" width="450" height="1" transform="translate(213 655)"/>
        </g>
        <g transform="translate(-213 -475)">
          <rect id="Rectangle_455-21" data-name="Rectangle 455" class="cls-5" width="450" height="1" transform="translate(213 655)"/>
        </g>
        <g transform="translate(-213 -466)">
          <rect id="Rectangle_455-22" data-name="Rectangle 455" class="cls-5" width="450" height="1" transform="translate(213 655)"/>
        </g>
        <g transform="translate(-213 -457)">
          <rect id="Rectangle_455-23" data-name="Rectangle 455" class="cls-5" width="450" height="1" transform="translate(213 655)"/>
        </g>
        <g transform="translate(-213 -448)">
          <rect id="Rectangle_455-24" data-name="Rectangle 455" class="cls-5" width="450" height="1" transform="translate(213 655)"/>
        </g>
        <g transform="translate(-213 -439)">
          <rect id="Rectangle_455-25" data-name="Rectangle 455" class="cls-5" width="450" height="1" transform="translate(213 655)"/>
        </g>
        <g transform="translate(-213 -430)">
          <rect id="Rectangle_455-26" data-name="Rectangle 455" class="cls-5" width="450" height="1" transform="translate(213 655)"/>
        </g>
        <g transform="translate(-213 -421)">
          <rect id="Rectangle_455-27" data-name="Rectangle 455" class="cls-5" width="450" height="1" transform="translate(213 655)"/>
        </g>
        <g transform="translate(-213 -412)">
          <rect id="Rectangle_455-28" data-name="Rectangle 455" class="cls-5" width="450" height="1" transform="translate(213 655)"/>
        </g>
        <g transform="translate(-213 -403)">
          <rect id="Rectangle_455-29" data-name="Rectangle 455" class="cls-5" width="450" height="1" transform="translate(213 655)"/>
        </g>
        <g transform="translate(-213 -394)">
          <rect id="Rectangle_455-30" data-name="Rectangle 455" class="cls-5" width="450" height="1" transform="translate(213 655)"/>
        </g>
        <g transform="translate(-213 -385)">
          <rect id="Rectangle_455-31" data-name="Rectangle 455" class="cls-5" width="450" height="1" transform="translate(213 655)"/>
        </g>
        <g transform="translate(-213 -376)">
          <rect id="Rectangle_455-32" data-name="Rectangle 455" class="cls-5" width="450" height="1" transform="translate(213 655)"/>
        </g>
        <g transform="translate(-213 -367)">
          <rect id="Rectangle_455-33" data-name="Rectangle 455" class="cls-5" width="450" height="1" transform="translate(213 655)"/>
        </g>
        <g transform="translate(-213 -358)">
          <rect id="Rectangle_455-34" data-name="Rectangle 455" class="cls-5" width="450" height="1" transform="translate(213 655)"/>
        </g>
        <g transform="translate(-213 -349)">
          <rect id="Rectangle_455-35" data-name="Rectangle 455" class="cls-5" width="450" height="1" transform="translate(213 655)"/>
        </g>
        <g transform="translate(-213 -340)">
          <rect id="Rectangle_455-36" data-name="Rectangle 455" class="cls-5" width="450" height="1" transform="translate(213 655)"/>
        </g>
        <g transform="translate(-213 -331)">
          <rect id="Rectangle_455-37" data-name="Rectangle 455" class="cls-5" width="450" height="1" transform="translate(213 655)"/>
        </g>
        <g transform="translate(-213 -322)">
          <rect id="Rectangle_455-38" data-name="Rectangle 455" class="cls-5" width="450" height="1" transform="translate(213 655)"/>
        </g>
        <g transform="translate(-213 -313)">
          <rect id="Rectangle_455-39" data-name="Rectangle 455" class="cls-5" width="450" height="1" transform="translate(213 655)"/>
        </g>
        <g transform="translate(-213 -304)">
          <rect id="Rectangle_455-40" data-name="Rectangle 455" class="cls-5" width="450" height="1" transform="translate(213 655)"/>
        </g>
        <g transform="translate(-213 -295)">
          <rect id="Rectangle_455-41" data-name="Rectangle 455" class="cls-5" width="450" height="1" transform="translate(213 655)"/>
        </g>
        <g transform="translate(-213 -286)">
          <rect id="Rectangle_455-42" data-name="Rectangle 455" class="cls-5" width="450" height="1" transform="translate(213 655)"/>
        </g>
        <g transform="translate(-213 -277)">
          <rect id="Rectangle_455-43" data-name="Rectangle 455" class="cls-5" width="450" height="1" transform="translate(213 655)"/>
        </g>
        <g transform="translate(-213 -268)">
          <rect id="Rectangle_455-44" data-name="Rectangle 455" class="cls-5" width="450" height="1" transform="translate(213 655)"/>
        </g>
        <g transform="translate(-213 -259)">
          <rect id="Rectangle_455-45" data-name="Rectangle 455" class="cls-5" width="450" height="1" transform="translate(213 655)"/>
        </g>
        <g transform="translate(-213 -250)">
          <rect id="Rectangle_455-46" data-name="Rectangle 455" class="cls-5" width="450" height="1" transform="translate(213 655)"/>
        </g>
        <g transform="translate(-213 -241)">
          <rect id="Rectangle_455-47" data-name="Rectangle 455" class="cls-5" width="450" height="1" transform="translate(213 655)"/>
        </g>
        <g transform="translate(-213 -232)">
          <rect id="Rectangle_455-48" data-name="Rectangle 455" class="cls-5" width="450" height="1" transform="translate(213 655)"/>
        </g>
        <g transform="translate(-213 -223)">
          <rect id="Rectangle_455-49" data-name="Rectangle 455" class="cls-5" width="450" height="1" transform="translate(213 655)"/>
        </g>
      </g>
    </g>
  </g>
</svg>
