<?xml version="1.0" encoding="utf-8"?>
<!-- Generator: Adobe Illustrator 22.0.0, SVG Export Plug-In . SVG Version: 6.00 Build 0)  -->
<svg version="1.1" id="Layer_1" xmlns="http://www.w3.org/2000/svg" xmlns:xlink="http://www.w3.org/1999/xlink" x="0px" y="0px"
	 viewBox="0 0 48 48" style="enable-background:new 0 0 48 48;" xml:space="preserve">
<g>
	<path style="fill:#E3C29B;" d="M37.66357,36.13998c-0.28003,0.90997-0.65002,1.90002-1.13,2.97003
		c-2.41998,5.41998-5.77997,7.92999-12.63,7.92999c-6.85999,0-9.22998-2.28003-12.22998-7.08002
		c-0.10999-0.17999-0.22003-0.38-0.33002-0.58002c-1.39996-2.76001-1.71997-7.20001-1.71002-10.70001
		c0-1.75,0.09003-3.26996,0.16003-4.22998c0.03998-0.66998,0.08997-1.07001,0.08997-1.09998
		c0.09003-1.39001,1.97003-2.38,3.09003-2.65002C14.07354,20.43997,24.21356,19.09,26.40356,18.91
		c0.60999-0.04999,1.60004-0.28003,2.69-0.52002c0.15002-0.02002,0.28998-0.04999,0.44-0.08002
		c0.16003-0.02997,0.31-0.06,0.47003-0.08997c2.46997-0.47003,5.15906-2.16782,5.49908-0.25785
		c0.01996,0.12,0.04089,1.72782,0.04089,1.85782c0.02002,1.20001,0.12,2.58002,0.27997,3.88
		c0.23004,1.84003,0.58002,3.52002,1.02002,4.29999c0,0,0,0,0.01001,0.01001c0.16998,0.31,0.38,0.59003,0.62,0.85004
		c0.15997,0.16998,0.29999,0.37,0.41998,0.60999C38.57354,30.74997,38.65356,32.98001,37.66357,36.13998z"/>
	<path style="opacity:0.45;fill:#D7AA83;" d="M31.81359,35.49997c-0.30054,0.57813-0.48716,0.94847-0.96484,1.05392
		c-0.56863,0.12553-1.4472-0.08921-1.99779-0.28831c-0.81411-0.29441-1.40891-0.95856-1.80269-1.72953
		c-1.23757-2.42296-3.66305-2.49361-5.71638-2.69809c-2.31-0.21997-3.67833-3.11795-7.0783-2.48795
		c-2.06,0.38995-3.66003-0.15002-4.62006-0.67004c0-1.75,0.14001-3.90997,0.21002-4.87l1.42999,0.95001l7.75-1.21997L26.41357,27.03
		C26.41357,27.03,32.98357,33.23001,31.81359,35.49997z"/>
	<path style="fill:#E3C29B;" d="M16.72357,24.93997c0.02002,0.32001,0,0.62-0.08002,0.92004
		c-0.27997,1.19995-1.31,2.13995-2.60999,2.23999l-0.90002,0.07001c-1.42999,0.10999-2.68994-0.80005-3.06-2.13
		c0-0.02002-0.00995-0.03003-0.00995-0.05005c-0.05005-0.15997-0.08002-0.32996-0.09003-0.50995l-0.13-1.67004l-0.03998-0.44995
		c0-0.01001,0-0.01001,0-0.01001l-0.20001-2.48004c-0.13-1.62,1.07001-3.02997,2.69-3.15997l0.89001-0.08002
		c1-0.08002,1.91998,0.35004,2.51001,1.07001c0.04999,0.06,0.09998,0.12,0.12994,0.17999
		c0.12006,0.16998,0.22003,0.35004,0.30005,0.54004c0.12,0.27997,0.19995,0.57996,0.21997,0.89996l0.25,3.04004L16.72357,24.93997z"
		/>
	<path style="fill:#E3C29B;" d="M23.42358,25.78c0.01001,0.14001,0.01001,0.27997,0,0.40997
		c-0.06,1.10004-0.72003,2.04004-1.69,2.48999l-0.58002,0.19c-0.13,0.04004-0.27997,0.06-0.41998,0.07001l-0.28003,0.02002
		c0,0.01001,0,0.01001,0,0.01001l-0.60999,0.04999c-1.62,0.13-3.02997-1.08002-3.15997-2.69l-0.04004-0.46997l-0.19-2.44l-0.32996-4
		l-0.01001-0.17004c-0.04999-0.57001,0.07001-1.12,0.33002-1.59998c0.03998-0.07001,0.06995-0.14001,0.12-0.20001
		c0.45996-0.76001,1.26996-1.28998,2.23999-1.35999l0.89001-0.08002c1.26996-0.09998,2.39996,0.60999,2.90997,1.70001
		c0.03998,0.10999,0.08002,0.21997,0.12,0.33002c0.06,0.20996,0.10999,0.42999,0.13,0.65997l0.20001,2.56
		c0.07001,0.78998,0.12,1.42999,0.13,1.63c0.01001,0.04999,0.01001,0.07001,0.01001,0.07001L23.42358,25.78z"/>
	<path style="fill:#E3C29B;" d="M35.50359,3.89999V24.97c0,0.81-0.33002,1.52997-0.85004,2.07001
		c-0.04999,0.06-0.10999,0.10999-0.17999,0.16998C33.96355,27.63998,33.30358,27.91,32.57354,27.91h-0.53998
		c-1.61999,0-2.94-1.32001-2.94-2.94V3.89999c0-0.08002,0-0.15002,0.02002-0.22998c0.10999-1.51001,1.38-2.71002,2.91998-2.71002
		h0.53998C34.1936,0.95999,35.50359,2.28,35.50359,3.89999z"/>
	<path style="opacity:0.45;fill:#D7AA83;" d="M37.47356,28.86002L34.15356,29.59L32.24358,27.91l-2.13-1.88
		c0,0-0.47003-4.79999-0.58002-7.72003c-0.03998-1.03998-0.02997-1.83997,0.06-2.10999c0,0,0.14001,0.88,0.41003,2.02002
		c0.50995,2.07001,1.99584,4.6323,3.01488,5.70229c2.20432,2.31454,2.70509-0.22231,2.80506-0.22231
		c0.23004,1.84003,0.58002,3.52002,1.02002,4.29999c0,0,0,0,0.01001,0.01001C37.02355,28.31998,37.23357,28.60001,37.47356,28.86002
		z"/>
	<g>
		<path style="fill:#D7A881;" d="M34.92358,27.17996c-0.13,0.03003-0.29004,0.04004-0.45001,0.03003
			C32.90356,27.18997,30.11358,26.03,30.11358,26.03l-1.02002-5.41998v-15.44c0.15002,1.94995,0.47003,6.27997,0.51001,7.75
			c0.03998,1.91998,0.84153,8.16482,1.16147,10.13479c0.26001,1.65002,3.13546,3.26257,4.03542,3.71259
			C34.97045,26.85735,34.92358,27.17996,34.92358,27.17996z"/>
	</g>
	<path style="fill:#E3C29B;" d="M30.05358,24.63998c0.13,1.62-1.08002,3.03003-2.69,3.15997l-1.03003,0.09003
		c-1.60999,0.13-3.02997-1.08002-3.15997-2.69l-0.57001-7.08002c-0.01001-0.13995-0.01001-0.27997,0-0.40997
		c0-0.01001,0-0.01001,0-0.02002c0.03998-0.67999,0.32001-1.31,0.76001-1.78998c0.07001-0.08002,0.14996-0.15002,0.22998-0.22003
		c0.45001-0.40997,1.03998-0.66998,1.70001-0.71997l1.02997-0.09003c1.62006-0.13,3.03003,1.08002,3.16003,2.69l0.37,4.58002
		L30.05358,24.63998z"/>
	<path style="opacity:0.45;fill:#D7AA83;" d="M30.1125,26.03341l-5.19893,1.61658l-3.17999,1.02997l-0.58002,0.19
		c-0.13,0.04004-0.27997,0.06-0.41998,0.07001l-0.89001,0.08002c-1.62,0.13-3.02997-1.08002-3.15997-2.69l-0.04004-0.46997
		c-0.27997,1.19995-1.31,2.13995-2.60999,2.23999l-0.90002,0.07001c-1.62,0.12994-3.02997-1.07001-3.15997-2.69l-0.13-1.67004
		c1.03998,0.29004,3.77002,0.85004,6.60999-0.38995c0.05005-0.02002,0.09003-0.04004,0.14001-0.06c0,0,3.69,0.89996,6.41003-0.31006
		c0.06995-0.01996,0.12994-0.04999,0.19-0.08997c0.02997-0.01001,0.06995-0.02002,0.09998-0.03998
		c0,0,3.42255,0.85693,6.64259-0.19305L30.1125,26.03341z"/>
	<path style="fill:#D7A881;" d="M25.98358,25.51999l-2.59003-0.16998l-0.78998-7.64001c0-0.01001,0-0.01001,0-0.02002
		c0.03998-0.67999,0.32001-1.31,0.76001-1.78998c-0.11652,0.23314-0.12154,0.40323-0.23327,0.8039
		c-0.38228,1.37094,0.55327,6.52612,0.76324,7.29608C24.09356,24.75998,25.98358,25.51999,25.98358,25.51999z"/>
	<path style="fill:#D7A881;" d="M20.45355,28.95999c0,0.01001,0,0.01001,0,0.01001l-0.60999,0.04999
		c-1.62,0.13-3.02997-1.08002-3.15997-2.69l-0.04004-0.46997c-0.27997,1.19995-1.31,2.13995-2.60999,2.23999l-0.90002,0.07001
		c-1.42999,0.10999-2.68994-0.80005-3.06-2.13c0-0.02002-0.00995-0.03003-0.00995-0.05005
		c-0.06-0.38995-0.19829-1.67997-0.22003-2.17999c0,0,0.23632,0.93356,0.66988,1.63974
		c0.58673,0.95564,1.54199,1.74555,2.83012,1.59031c2.23999-0.28003,2.55923-1.84621,2.84003-2.52002
		c0.34722-0.83319-0.09548-5.4122-0.06-5.09998l-0.01001-0.17004c-0.04999-0.57001,0.07001-1.12,0.33002-1.59998
		c-0.07027,0.4348-0.08905,0.94171-0.05495,1.47651c0.16851,2.64259,0.8542,6.30237,0.9449,6.67345
		c0.13,0.55005,1,2.15002,2.51001,1.88C20.91357,27.48001,20.68359,28.39999,20.45355,28.95999z"/>
	<path style="fill:#E3C29B;" d="M37.06359,29.19998c-0.04004,0.71002-0.37,1.69-0.82001,3.28998
		c-0.59003,2.05005-2.13896,5.08734-3.89891,5.01733c-1.26001-0.03998-2.95112-2.9273-3.02113-3.13733
		c-0.17999-0.50995-0.82996-1.98999-1.44-2.85999c-0.62-0.87-1.84998-0.71997-3.94995-0.35999c-1.80005,0.31-2.88-0.25-4.03003-1.81
		c-0.08002-0.10999-0.16998-0.22003-0.25-0.34003c-0.12-0.16998-0.22998-0.33997-0.34998-0.52997
		c-1.41003-2.21002-0.14001-3.87,0.57996-3.65002c0.72003,0.21002,4.12006-0.17999,5.75-0.21997
		c1.63-0.04004,3.84003-0.04004,3.84003-0.04004c1.59003-0.02997,4.45001,1.73999,6.28998,2.79004
		C36.77355,27.92001,37.12359,28.36002,37.06359,29.19998z"/>
	<path style="fill:#E8CAAA;" d="M37.89355,29.47c-0.26001-0.16003-0.53998-0.33002-0.82996-0.51001
		c-2.03003-1.23999-4.51001-2.67999-5.21002-3C30.27355,25.22,27.37359,24.78,25.39355,25.25998
		c-1.97998,0.47998-4.27997-0.09998-5.46997,0.37c-0.91998,0.37-0.25,3.04999-0.02002,3.71002
		c-0.20001-0.26001-0.39996-0.54999-0.59998-0.87c-1.41003-2.21002-0.14001-3.87,0.57996-3.65002
		c0.72003,0.21002,4.12006-0.17999,5.75-0.21997c1.63-0.04004,3.84003-0.04004,3.84003-0.04004
		c1.59003-0.02997,4.45001,1.73999,6.28998,2.79004c0.12,0.07001,0.28003,0.15997,0.44,0.26001
		c0.20001,0.10999,0.41003,0.23999,0.64001,0.38995c0,0,0,0,0.01001,0.01001c0.16998,0.31,0.38,0.59003,0.62,0.85004
		C37.63354,29.03,37.77355,29.23001,37.89355,29.47z"/>
	<path style="fill:#D7A881;" d="M30.84875,36.55389c-0.92342-0.52193-1.4552-1.9739-1.52521-2.18393
		c-0.17999-0.50995-0.82996-1.98999-1.44-2.85999c-0.62-0.87-1.84998-0.71997-3.94995-0.35999c-1.80005,0.31-2.88-0.25-4.03003-1.81
		c-0.08002-0.10999-0.16998-0.22003-0.25-0.34003c3.10182,2.23392,3.84894,1.57743,5.33843,1.40694
		c3.11997-0.35711,3.50806,0.24511,4.83297,3.47709L30.84875,36.55389z"/>
	<path style="fill:#D7AA83;" d="M37.66357,36.13998c-0.28003,0.90997-0.65002,1.90002-1.13,2.97003
		c-2.41998,5.41998-5.77997,7.92999-12.63,7.92999c-6.85999,0-9.22998-2.28003-12.22998-7.08002
		c-0.10999-0.17999-0.22003-0.38-0.33002-0.58002c1.79999,2.06,6.81903,6.6791,12.42381,6.30164
		C32.34652,45.10384,34.85357,41.86002,37.66357,36.13998z"/>
	<path style="fill:#E8CAAA;" d="M35.50359,3.89999v15.94c-0.36005-4.13-0.41003-12.07001-0.48004-13.59003
		C34.93359,4.31998,35.32354,1.72,32.14355,1.59c-1.98999-0.07001-2.75,1.14996-3.02997,2.08002
		c0.10999-1.51001,1.38-2.71002,2.91998-2.71002h0.53998C34.1936,0.95999,35.50359,2.28,35.50359,3.89999z"/>
	<path style="fill:#E8CAAA;" d="M15.82354,18.87997c-0.20996-0.09998-0.61489-0.45422-1.26488-0.64249
		c-1.11855-0.32398-3.29494,0.27046-3.96492,1.30049c-0.53998,0.82001-0.69019,3.05202-0.79016,3.81203l-0.20001-2.48004
		c-0.13-1.62,1.07001-3.02997,2.69-3.15997l0.89001-0.08002c1-0.08002,1.91998,0.35004,2.51001,1.07001
		C15.74358,18.75998,15.79357,18.81998,15.82354,18.87997z"/>
	<path style="fill:#E8CAAA;" d="M23.18359,22.88998c-0.13-0.59998-1.07001-5.15997-1.69-5.73999
		c-0.65002-0.63-1.66003-0.82001-3.20001-0.53003c-0.5,0.10004-1.40992,0.45968-1.84429,1.01593
		c0.05153-0.11756,0.18312-0.29564,0.2072-0.33134c0.0328-0.04861,0.06687-0.09636,0.1023-0.14309
		c0.0691-0.09113,0.14335-0.17838,0.22295-0.26052c0.15707-0.16207,0.33501-0.3033,0.52915-0.41845
		c0.20618-0.1223,0.42901-0.21467,0.6589-0.28182c0.27201-0.07945,0.55663-0.11585,0.83706-0.15186
		c0.53889-0.06919,1.13502-0.15456,1.66632,0.00483c0.4443,0.1174,0.85489,0.34649,1.19484,0.6549
		c0.15337,0.13914,0.29239,0.29398,0.415,0.46083c0.11828,0.16097,0.2549,0.35018,0.32056,0.54059
		c0.03998,0.10999,0.35999,2.56,0.45001,3.54999C23.12359,22.04996,23.17358,22.68997,23.18359,22.88998z"/>
	<path style="fill:#E8CAAA;" d="M29.85357,22.13998c-0.29999-1.56-0.97998-5.01001-1.33002-5.65997
		c-0.45001-0.84003-1.22998-1.20001-3.25-1.13c-0.77997,0.02997-1.32001,0.16998-1.67999,0.32996
		c0.10196-0.04531,0.20514-0.17586,0.29767-0.24319c0.10942-0.07963,0.22371-0.15265,0.34254-0.21744
		c0.24538-0.13381,0.51555-0.23871,0.79228-0.28411c0.58815-0.09649,1.18512-0.16318,1.78148-0.11723
		c0.52629,0.04055,1.04205,0.25722,1.46326,0.57111c0.68879,0.5133,1.14348,1.31277,1.21279,2.17086
		C29.48358,17.56002,29.85357,22.13998,29.85357,22.13998z"/>
</g>
</svg>
