<?xml version="1.0" encoding="utf-8"?>
<!-- Generator: Adobe Illustrator 22.0.0, SVG Export Plug-In . SVG Version: 6.00 Build 0)  -->
<svg version="1.1" id="Layer_1" xmlns="http://www.w3.org/2000/svg" xmlns:xlink="http://www.w3.org/1999/xlink" x="0px" y="0px"
	 viewBox="0 0 48 48" style="enable-background:new 0 0 48 48;" xml:space="preserve">
<path style="fill:#F1BF41;" d="M38.00193,29.31l-0.76996,0.44l-7.44,4.02002l-3.37,1.77997l-7.60004,4.02002l-3.19995,1.70001
	L9.64194,44.44l-2.85999,1.51001l-1.01001,0.53998c-0.20996,0.22003-0.64996,0.12-1.16998-0.16998
	c-1.21002-0.64001-2.89001-2.27002-3.34003-3.29999c-0.13995-0.32001-0.04759-0.49488-0.01996-0.73999l0.39996-1.07001
	l1.04004-2.80005l2.40997-6.5l1.28003-3.45996l2.98999-8.04999l1.40997-3.81l2.92999-8.05005l0.10004-0.23999l0.58997,0.53003
	L32.87199,25.38l0.22998,0.20001l4.41998,3.71997l0.03003-0.01996L38.00193,29.31z"/>
<path style="fill:#F9C758;" d="M15.79427,14.44208c-2.02348-2.76882-2.55812-0.83275-2.55812-0.83275L1.26194,43.02002
	c-0.13995-0.32001-0.11423-0.49948-0.01996-0.73999l0.39996-1.07001l1.04004-2.80005l2.40997-6.5l1.28003-3.45996l2.98999-8.04999
	l1.40997-3.81l2.92999-8.05005l0.10004-0.23999l0.58997,0.53003L15.79427,14.44208z"/>
<path style="fill:#F9C758;" d="M32.52195,27.17999C26.92197,26.25,20.41417,20.09585,16.07414,14.81582
	c-1.02532-1.24583-1.63291-2.33518-2.03572-3.21823c-0.43536-0.95442-0.69309-2.07067-0.33661-3.05726
	c0.00009-0.00024,0.00013-0.00035,0.00013-0.00035l0.10004-0.23999L32.87199,25.38l0.22998,0.20001
	C33.65195,26.71997,33.55198,27.34998,32.52195,27.17999z"/>
<path style="fill:#F5AC22;" d="M37.41678,29.33437c-0.01001,0.01001,0.01406,0.11379-0.00589,0.12374l0.32733-0.19886
	l-0.22923,0.21533l0.45845-0.07641l-8.17548,4.37185l-3.37,1.77997l-7.60004,4.02002l-3.19995,1.70001L9.64194,44.44
	l-2.85999,1.51001l-1.01001,0.53998c-0.20996,0.22003-0.64996,0.12-1.16998-0.16998c3.87-2.26001,25.23999-14.73999,26.12-15.45001
	c0.97998-0.77997,1.90585-0.94101-2.7042-5.62106l-0.4987-0.53988L32.87199,25.38l3.40997-0.02002
	C37.67197,27.40002,37.98679,28.70436,37.41678,29.33437z"/>
<path style="fill:#BC66EF;" d="M29.79197,33.77002l-3.37,1.77997c-0.57001-0.20001-1.28003-0.45996-2.08002-0.81
	c-3.97998-1.72998-10.33002-5.52002-14.36999-13.13C9.76194,21.21997,9.56199,20.81,9.36198,20.40002l1.40997-3.81
	c0.17999,0.37994,0.41003,0.83997,0.69,1.35999c2.01001,3.67999,6.76001,10.44,16.16003,14.87
	C28.32194,33.15002,29.04197,33.46997,29.79197,33.77002z"/>
<path style="fill:#BC66EF;" d="M18.82194,39.57001l-3.19995,1.70001c-0.46002-0.13-0.97003-0.30005-1.52002-0.52002
	c-2.85004-1.09998-6.63-3.39001-8.66003-8c-0.12994-0.27002-0.23999-0.54999-0.34998-0.84003l1.28003-3.45996
	c0.12,0.26996,0.25995,0.58002,0.44,0.91998c1.31995,2.59003,4.34998,7.04999,10.35998,9.58002
	C17.70194,39.17999,18.25193,39.38,18.82194,39.57001z"/>
<path style="fill:#BC66EF;" d="M9.64194,44.44l-2.85999,1.51001c-0.28998-0.10999-0.59998-0.23004-0.90997-0.37
	c-1.52002-0.70001-3.16003-1.90002-4.05005-3.94L1.81199,41.63c-0.06006-0.14001-0.12006-0.28003-0.17004-0.41998l1.04004-2.80005
	c0.06995,0.17004,0.13995,0.36005,0.22998,0.55005c0.71002,1.57001,2.26001,3.70996,5.60999,5.07001
	C8.87199,44.17999,9.25193,44.31,9.64194,44.44z"/>
<g>
	<path style="fill:#1853B2;" d="M3.22624,12.85759c0,0-0.08523-0.29353,0.51195-0.66943s2.03913-1.32741,2.43668-1.66386
		c0.32699-0.27673,0.88986-0.95703,0.88194-1.59583c-0.00174-0.1405-0.08152-0.2524-0.16613-0.37629
		c-0.2457-0.35978-0.85368-0.645-2.23642-0.64465c0,0,1.66509,0.23367,1.08734,1.12952
		c-0.5903,0.91531-1.43535,0.87057-2.20037,1.71559S2.83725,12.49725,3.22624,12.85759z"/>
	<path style="fill:#2667E5;" d="M8.37173,12.59534c-0.35432,0.14173-0.71828,0.26262-1.08343,0.37288
		c-0.64738,0.19549-1.34049,0.39265-2.02221,0.36709c-0.64683-0.02425-1.72183-0.23321-2.01004-0.92068
		c-0.26321-0.62785,0.17868-1.37775,0.50988-1.88611c0,0-1.37152,1.06631-0.97804,2.25441s2.61549,1.15173,3.56052,0.95572
		s2.79397-0.76848,2.79397-0.76848S9.19376,12.361,8.37173,12.59534z"/>
	<path style="fill:#4F7FFB;" d="M10.72196,13.69c0.01001,0.06,0.01001,0.12,0,0.17999
		c-0.01001,0.25-0.09003,0.51001-0.17999,0.73999c-0.20001,0.5-0.39001,0.98999-0.64001,1.46002
		c-0.56,1.07001-1.78998,3.29999-1.82001,3.34998c-0.20996,0.36005-1.83002-0.51001-1.88-0.95001c0-0.02997,0-0.06,0.02002-0.08997
		c0,0,2.76001-4.22998,2.59003-5.46002c-0.03003-0.22998-0.57001-0.20996-1.18005-0.06c0,0,1.28003-0.64996,2.24005-0.17999
		c0.31995,0.15002,0.64996,0.37,0.78998,0.72003C10.69193,13.48999,10.72196,13.59003,10.72196,13.69z"/>
	<path style="fill:#4F7FFB;" d="M7.05198,8.92999c0,0-0.27002-0.95001-2.40002-1.02002c0,0-2.71997-0.08997-3.10999-1.44995
		C1.45194,6.14001,1.41196,5.81,1.43198,5.46997c0.04999-1.31,0.84998-2.60999,1.52997-3.31c0.73999-0.75,1.60004-1.19,1.60004-1.19
		c0.15997-0.12994,0.82996,1.10004,0.79999,1.43005c-0.00146,0.0161-0.05161,0.05269-0.06256,0.06314
		C5.18596,2.57134,5.0469,2.65202,4.92062,2.74408c-0.13478,0.09826-0.2672,0.19995-0.39358,0.30888
		C4.3231,3.22874,4.13061,3.41816,3.95437,3.62178C3.75628,3.85066,3.57851,4.09792,3.43244,4.36328
		c-0.05493,0.0998-0.10534,0.20211-0.15048,0.30671c-0.59998,1.40002-0.03998,1.98999,0.65002,2.25
		c0.66998,0.26001,2.75995,0.48004,3.09998,1.86005C7.05198,8.83002,7.06199,8.88,7.05198,8.92999z"/>
</g>
<path style="fill:#2667E5;" d="M33.61835,36.85707l-1.40553,1.04768c-0.16728,0.12469-0.40397,0.09016-0.52866-0.07712
	l-0.99462-1.33436c-0.12469-0.16728-0.09016-0.40396,0.07712-0.52866l1.40554-1.04768
	c0.16728-0.12469,0.40396-0.09016,0.52866,0.07711l0.99462,1.33436C33.82016,36.4957,33.78563,36.73239,33.61835,36.85707z"/>
<path style="fill:#FFFF39;" d="M42.02908,29.1625l-1.51818,0.87652c-0.18069,0.10432-0.41173,0.04241-0.51604-0.13828
	l-0.83213-1.4413c-0.10432-0.18069-0.04241-0.41173,0.13828-0.51605l1.51818-0.87652
	c0.18069-0.10432,0.41173-0.04241,0.51605,0.13827l0.83213,1.4413C42.27167,28.82714,42.20976,29.05818,42.02908,29.1625z"/>
<path style="fill:#FC9632;" d="M45.86369,32.30331l-1.51818,0.87652c-0.18068,0.10432-0.41173,0.04241-0.51604-0.13828
	l-0.83213-1.4413c-0.10432-0.18069-0.04241-0.41173,0.13828-0.51605l1.51818-0.87652
	c0.18068-0.10432,0.41173-0.04241,0.51604,0.13827l0.83213,1.4413C46.10628,31.96795,46.04438,32.19899,45.86369,32.30331z"/>
<path style="fill:#FE9726;" d="M42.16629,35.84365l-0.68059,1.61554c-0.081,0.19228-0.30253,0.28248-0.4948,0.20148
	l-1.53372-0.64612c-0.19228-0.081-0.28248-0.30253-0.20148-0.4948l0.68059-1.61554c0.081-0.19227,0.30253-0.28248,0.4948-0.20148
	l1.53372,0.64612C42.15708,35.42985,42.24729,35.65138,42.16629,35.84365z"/>
<path style="fill:#FA73B8;" d="M43.27884,42.0424l-1.55133,0.81642c-0.18463,0.09716-0.41307,0.02626-0.51024-0.15837
	l-0.77507-1.47277c-0.09716-0.18463-0.02626-0.41307,0.15837-0.51024l1.55133-0.81642
	c0.18463-0.09717,0.41307-0.02626,0.51024,0.15837l0.77507,1.47277C43.53437,41.71679,43.46347,41.94523,43.27884,42.0424z"/>
<path style="fill:#2667E5;" d="M27.7007,11.11015l-1.40962,1.04218c-0.16776,0.12403-0.40432,0.08858-0.52835-0.07918
	l-0.9894-1.33823c-0.12403-0.16776-0.08858-0.40432,0.07918-0.52835l1.40962-1.04218
	c0.16776-0.12403,0.40432-0.08858,0.52835,0.07918l0.9894,1.33823C27.90392,10.74956,27.86847,10.98611,27.7007,11.11015z"/>
<path style="fill:#F11459;" d="M38.34038,5.17439l-1.41334,1.03713c-0.16821,0.12343-0.40463,0.08714-0.52806-0.08107
	l-0.9846-1.34176c-0.12344-0.16821-0.08714-0.40463,0.08107-0.52806l1.41334-1.03713
	c0.16821-0.12343,0.40463-0.08714,0.52806,0.08107l0.98461,1.34176C38.54489,4.81453,38.50859,5.05096,38.34038,5.17439z"/>
<path style="fill:#FA73B8;" d="M43.27884,42.0424l-1.55133,0.81642c-0.18463,0.09716-0.41307,0.02626-0.51024-0.15837
	l-0.77507-1.47277c-0.09716-0.18463-0.02626-0.41307,0.15837-0.51024l1.55133-0.81642
	c0.18463-0.09717,0.41307-0.02626,0.51024,0.15837l0.77507,1.47277C43.53437,41.71679,43.46347,41.94523,43.27884,42.0424z"/>
<path style="fill:#2667E5;" d="M24.70512,5.12469l-1.29803,1.17825c-0.15449,0.14023-0.3934,0.12867-0.53363-0.02581
	l-1.11858-1.2323c-0.14023-0.15448-0.12867-0.3934,0.02581-0.53363l1.29803-1.17825c0.15449-0.14023,0.3934-0.12867,0.53363,0.02581
	l1.11858,1.2323C24.87116,4.74555,24.8596,4.98446,24.70512,5.12469z"/>
<path style="fill:#FA73B8;" d="M15.98694,5.97356l-1.23959,1.23959c-0.14753,0.14753-0.38672,0.14753-0.53425,0l-1.17682-1.17681
	c-0.14753-0.14753-0.14753-0.38672,0-0.53425l1.23959-1.23959c0.14753-0.14753,0.38672-0.14753,0.53425,0l1.17681,1.17681
	C16.13447,5.58684,16.13447,5.82603,15.98694,5.97356z"/>
<path style="fill:#FFFF39;" d="M12.28008,8.9581l-1.23959,1.23959c-0.14753,0.14753-0.38672,0.14753-0.53425,0L9.32942,9.02088
	c-0.14753-0.14753-0.14753-0.38672,0-0.53425l1.23959-1.23959c0.14753-0.14753,0.38672-0.14753,0.53425,0l1.17681,1.17681
	C12.42761,8.57138,12.42761,8.81057,12.28008,8.9581z"/>
<path style="fill:#FA73B8;" d="M6.41736,25.04604l-1.05797,1.39781c-0.12591,0.16636-0.36285,0.19915-0.52921,0.07323
	l-1.32702-1.00439c-0.16636-0.12591-0.19915-0.36285-0.07323-0.52921l1.05797-1.3978
	c0.12591-0.16636,0.36285-0.19915,0.52921-0.07323l1.32702,1.00439C6.51048,24.64274,6.54327,24.87968,6.41736,25.04604z"/>
<path style="fill:#A24DDE;" d="M8.52195,44.03003c0.35004,0.14996,0.72998,0.27997,1.12,0.40997l-2.85999,1.51001
	c-0.28998-0.10999-0.59998-0.23004-0.90997-0.37L8.52195,44.03003z"/>
<path style="fill:#A24DDE;" d="M17.17197,38.95001c0.52997,0.22998,1.07996,0.42999,1.64996,0.62l-3.19995,1.70001
	c-0.46002-0.13-0.97003-0.30005-1.52002-0.52002L17.17197,38.95001z"/>
<path style="fill:#A24DDE;" d="M29.79197,33.77002l-3.37,1.77997c-0.57001-0.20001-1.28003-0.45996-2.08002-0.81l3.28003-1.91998
	C28.32194,33.15002,29.04197,33.46997,29.79197,33.77002z"/>
<ellipse transform="matrix(0.65749 -0.75346 0.75346 0.65749 -5.06795 26.04262)" style="fill:#EA9C1F;" cx="26.11057" cy="18.5956" rx="4.14055" ry="16.09701"/>
<g>
	<path style="fill:#4F7FFB;" d="M46.26194,21.48999c0,0-5.06-0.27002-10.62,1.06c-0.39996,0.10004-0.81,0.20001-1.21997,0.32001
		C34.41196,22.88,34.41196,22.88,34.40195,22.88c-1.83997,0.52002-4.35999,1.60999-6.17999,2.64001
		c-0.09003-0.06-0.17999-0.13-0.28003-0.20001c-0.62-0.44-1.25995-0.91998-1.89996-1.41998
		c1.27002-0.75,3.88-2.18005,6.52997-3.09003c0.01001,0,0.01001,0,0.02002-0.01001c0.40002-0.14001,0.81-0.26996,1.23999-0.39996
		c3.33002-1,7.56-1.74005,12.47003-1.44c0,0,0.01001,0,0.01001,0.00995C46.45194,19.09998,46.42197,21.48999,46.26194,21.48999z"/>
	<path style="fill:#EC1A4F;" d="M22.06199,19.03003c-0.05005,0.51996-0.10004,0.97998-0.15002,1.35999
		c-0.60999-0.57001-1.19-1.14001-1.75-1.70001c0.16998-1.76001,0.42999-5.09003,0.20001-8.15002v-0.07001
		c0-0.10999-0.01001-0.21997-0.02002-0.32996c-0.02002-0.28003-0.04999-0.54999-0.09003-0.81
		c-0.75995-4.92999-4.50995-5.53003-4.50995-5.53003C15.69193,3.78003,15.65195,3.75,15.63193,3.69
		c-0.26996-0.47998,0.43005-2.27002,0.90002-2.09998c3.35999,0.75995,4.88,2.79999,5.67999,7.22998
		C22.31199,9.37,22.38193,9.97998,22.42197,10.62c0.02997,0.41998,0.04999,0.84998,0.06,1.28998v0.04004
		C22.52195,14.12,22.28196,16.98999,22.06199,19.03003z"/>
</g>
<g>
	<path style="fill:#A51E3F;" d="M39.83103,13.68071c0,0,0.2537-0.24267-0.20958-0.88243
		c-0.50885-0.7027-1.08533-1.38086-1.51189-2.14323c-0.01285-0.02296-0.02571-0.04592-0.03836-0.06899
		c-0.28752-0.52441-0.49556-1.09215-0.5327-1.69312c-0.01624-0.26277,0.0064-0.54379,0.14103-0.7761
		c0.07785-0.13435,0.22733-0.20483,0.38868-0.2846c0.46855-0.23166,1.30105-0.22284,2.84379,0.42154
		c-0.12005-0.05015-0.27507-0.06125-0.40206-0.08197c-0.26472-0.0432-0.5378-0.07209-0.8059-0.04801
		C39.5318,8.13927,39.334,8.17595,39.20536,8.30182c-0.18675,0.18275-0.10146,0.45951-0.02979,0.67354
		c0.19918,0.59478,0.49178,1.13517,0.86724,1.63671c0.21679,0.28995,0.44017,0.57653,0.57137,0.91772
		C41.05738,12.68232,40.45976,13.51525,39.83103,13.68071z"/>
	<path style="fill:#CA1C49;" d="M34.23116,11.03178c0.27216,0.20939,0.52186,0.4836,0.78941,0.70923
		c1.02681,0.86593,2.17179,1.52939,3.50842,1.75596c0.4637,0.0786,0.99793,0.14661,1.44134-0.05411
		c0.38934-0.17624,0.57987-0.55533,0.63925-0.96299c0.04138-0.28414,0.08271-0.76633-0.36047-1.57977
		c0,0,1.23592,1.42561,0.11138,2.91296c-0.87176,1.15302-3.54074-0.1103-4.48935-0.73903
		c-0.94861-0.62873-2.70243-2.04061-2.70243-2.04061S33.44051,10.42347,34.23116,11.03178z"/>
	<path style="fill:#F11459;" d="M34.23197,11.03003c-1.85004-0.97003-0.73004,6.56-0.73004,6.56
		c0,0.00995,0,0.01996-0.00995,0.02997c-0.06,0.47003-2.38001,0.64001-2.42005,0.16998c0,0-0.25-3.19-0.34998-5.01996
		c-0.10999-1.83002,0.46002-2.36005,1.78998-2.36005C33.84196,10.40997,34.23197,11.03003,34.23197,11.03003z"/>
	<path style="fill:#F11459;" d="M40.91201,8.25378c0,0,3.08278,1.18136,4.25635,0.06363
		c1.38111-1.31539,1.23821-3.56066,0.73697-4.80834c-0.22281-0.5546-1.14429-1.89272-1.14429-1.89272
		c-0.12905-0.21257-1.8381,0.87605-1.66629,1.09264c0,0,1.18185,1.45045,1.0959,3.07281S43.15921,7.705,42.24596,7.64053
		c-0.88204-0.06226-3.33183-0.81982-4.46525,0.34795c-0.0401,0.04131-0.08125,0.07656-0.10118,0.12835
		C37.67953,8.11683,38.49597,7.33362,40.91201,8.25378z"/>
</g>
<path style="fill:#C378F9;" d="M2.68198,38.40997c0.06995,0.17004,0.13995,0.36005,0.22998,0.55005l-1.09003,2.67999L1.81199,41.63
	c-0.06006-0.14001-0.12006-0.28003-0.17004-0.41998L2.68198,38.40997z"/>
<path style="fill:#C378F9;" d="M6.37199,28.45001c0.12,0.26996,0.25995,0.58002,0.44,0.91998l-1.37006,3.38
	c-0.12994-0.27002-0.23999-0.54999-0.34998-0.84003L6.37199,28.45001z"/>
<path style="fill:#C378F9;" d="M11.46195,17.95001l-1.48999,3.65997C9.76194,21.21997,9.56199,20.81,9.36198,20.40002l1.40997-3.81
	C10.95194,16.96997,11.18198,17.42999,11.46195,17.95001z"/>
<path style="fill:#F74681;" d="M22.06199,19.03003c0.07996-2.02002,0.07464-6.30392,0.01465-7.46395
	c-0.08002-1.52997-0.44929-3.9389-1.48927-6.21893c-1.03003-2.26996-2.82639-2.88265-3.78974-3.05605
	C16.21992,2.1871,15.70194,3.28003,15.63193,3.69c-0.26996-0.47998,0.43005-2.27002,0.90002-2.09998
	c3.35999,0.75995,4.88,2.79999,5.67999,7.22998C22.31199,9.37,22.38193,9.97998,22.42197,10.62
	c0.02997,0.41998,0.04999,0.84998,0.06,1.28998v0.04004C22.52195,14.12,22.28196,16.98999,22.06199,19.03003z"/>
<path style="fill:#F74681;" d="M33.50193,17.59003c-0.0356,0.54028-2.38996,0.66998-2.42999,0.19995c0,0-0.25-3.19-0.34998-5.01996
	c-0.10999-1.83002,0.46002-2.36005,1.78998-2.36005c1.33002,0,1.72003,0.62006,1.72003,0.62006
	c-0.67452-0.56366-2.28083-0.59873-2.78588,0.22898c-0.40385,0.66186-0.02703,4.06182,0.11925,6.1096
	C31.60041,17.85962,33.02189,17.76001,33.50193,17.59003z"/>
<path style="fill:#709BFC;" d="M5.36198,2.40002C5.19016,2.10694,5.00517,1.8495,4.86419,1.66651
	C4.72908,1.49115,4.49307,1.41543,4.2884,1.49976c-1.7828,0.7346-2.62099,2.83076-2.85642,3.97021
	c0.04999-1.31,0.84998-2.60999,1.52997-3.31c0.73999-0.75,1.60004-1.19,1.60004-1.19
	C4.72196,0.84003,5.39194,2.07001,5.36198,2.40002z"/>
<path style="fill:#2667E5;" d="M46.26194,21.48999c0,0-5.06-0.27002-10.62,1.06c-0.39996,0.10004-0.81,0.20001-1.21997,0.32001
	C34.41196,22.88,34.41196,22.88,34.40195,22.88c-1.83997,0.52002-4.35999,1.60999-6.17999,2.64001
	c-0.09003-0.06-0.17999-0.13-0.28003-0.20001c1.25-0.71002,6.31058-3.37667,10.50058-3.9067
	c4.76001-0.58997,7.46457-0.46055,7.52945-0.86332c0.06095-0.37839,0.23999-1.12,0.34003-1.58002
	C46.45194,19.09998,46.42197,21.48999,46.26194,21.48999z"/>
<path style="fill:#2667E5;" d="M10.72196,13.69c0.01001,0.06,0.01001,0.12,0,0.17999c-0.01001,0.25-0.09003,0.51001-0.17999,0.73999
	c-0.20001,0.5-0.39001,0.98999-0.64001,1.46002c-0.56,1.07001-1.78998,3.29999-1.82001,3.34998
	c-0.20996,0.36005-1.83002-0.51001-1.88-0.95001c0.39001,0.25,1.40002,0.87006,1.56,0.61005
	C9.77195,15.79999,10.51194,14.44,10.72196,13.69z"/>
</svg>
