<?xml version="1.0" encoding="utf-8"?>
<!-- Generator: Adobe Illustrator 22.0.0, SVG Export Plug-In . SVG Version: 6.00 Build 0)  -->
<svg version="1.1" id="Layer_1" xmlns="http://www.w3.org/2000/svg" xmlns:xlink="http://www.w3.org/1999/xlink" x="0px" y="0px"
	 viewBox="0 0 48 48" style="enable-background:new 0 0 48 48;" xml:space="preserve">
<g>
	<path style="fill:#E3C29B;" d="M39.09998,33.02002l-1.94995,6.56l-7.29004,3.70996L29.38,43.53003
		C22.13,44.21997,17.62,39.82001,17.62,39.82001L10.13,41.42999c0,0-0.92999-0.19-2.02002-1.28998
		c-1.12-1.13-2.42999-3.22003-3.04999-7.06c-0.63-3.79999,0.15997-6.54999,1.09998-8.35004
		C7.08002,22.96002,8.15002,22.13,8.15002,22.13L15.08002,22.37c1.27997-2.40997,1.98999-1.82001,4.64996-5.15997
		c1.42004-1.79004,2.11005-3.17999,2.34003-4.42999c0.19-1.08002,0.04999-2.05005-0.23999-3.09003
		c-0.11005-0.38-0.22003-0.73999-0.34003-1.09003C20.96002,6.95001,20.56,5.56,22.13,4.17999
		c1.91998-1.66998,4.58002-0.37,6.56,1.97998C29.77002,7.44,29.97998,8.56,29.84003,10.03003c0,0,0,0,0,0.00995
		C29.81,10.40002,29.75,10.78003,29.67999,11.17999c-0.12,0.66998-0.27997,1.41003-0.45001,2.27002
		c-0.07001,0.40997-0.14996,0.83997-0.22998,1.31c-0.22998,1.39001,0.19,2.44,0.92999,3.25
		c1.59003,1.75,4.60004,2.34998,5.41003,2.82001c1.16998,0.67999,3.37,5.57001,3.37,5.57001
		C40.69,26.95001,39.09998,33.02002,39.09998,33.02002z"/>
	<path style="opacity:0.45;fill:#D7AA83;" d="M35.65063,21.09364c-0.08054-0.27751-5.50855-2.33854-8.21087,0.51967
		c-0.88019,0.93097-1.4776,3.6853-0.3118,5.45659c0,0-1.88906,2.02457,0.40183,5.9434c0,0-1.05927,2.35122,0.26958,5.39153
		c0.49576,1.13426-0.38515,2.57394-0.98321,2.8522c-1.08982,0.50705-3.50549,0.57493-5.7547-0.1748
		c0,0,6.71177,3.93449,8.71759,0.92576S36.32035,23.40114,35.65063,21.09364z"/>
	<path style="fill:#E3C29B;" d="M43.13844,24.05818c-0.01731,0.51616-0.10392,0.93881-0.23557,1.28176
		c-0.14896,0.38106-0.3568,0.66512-0.58545,0.88337c-0.53001,0.50232-1.16744,0.65128-1.46536,0.82102
		c-0.54388,0.30832-6.55082,0.46421-9.06932,0.46421c-2.51849,0-4.10856-0.73788-4.45845-2.94459
		c-0.21478-1.36146,0.2321-2.26561,0.85912-2.8961c0,0,0,0,0.00347-0.00345c0.39146-0.39146,0.85221-0.67553,1.27136-0.90071
		c1.0843-0.57852,4.6871-0.46419,4.6871-0.46419s4.30255-0.03812,5.50463,0.0381
		C40.85206,20.41729,43.21466,21.26949,43.13844,24.05818z"/>
	<path style="fill:#E3C29B;" d="M43.15923,30.70255c-0.0381,0.78985-0.31524,1.33027-0.67551,1.69748
		c-0.74135,0.76211-1.82565,0.7933-1.82565,0.7933s-9.37764,0.07967-10.69751,0.04157
		c-1.31987-0.03463-2.6917-0.74826-2.6917-3.1559c0-1.93304,1.83258-2.59123,2.54968-2.77137
		c0.17666-0.04504,0.28751-0.06235,0.28751-0.06235s9.69981-0.10739,10.73216-0.0381
		C41.87401,27.2799,43.27702,28.17368,43.15923,30.70255z"/>
	<path style="fill:#E3C29B;" d="M41.96753,36.84116c-0.03463,0.64781-0.26673,1.09815-0.56812,1.41339
		c-0.63743,0.67206-1.58315,0.72056-1.58315,0.72056s-8.14091,0.10392-9.29103,0.02079
		c-1.15359-0.08661-2.45267-1.23673-2.45267-3.43303c0-1.70788,0.98385-2.24136,1.42034-2.39378
		c0.12124-0.04157,0.20091-0.05542,0.20091-0.05542l10.31298-0.06582C41.43405,33.34575,42.07492,34.81804,41.96753,36.84116z"/>
	<path style="fill:#E3C29B;" d="M40.1315,41.72916c-0.07967,0.8799-0.49191,1.82218-2.28291,2.42149
		c-2.58085,0.85912-7.31298-0.14549-8.09934-0.5993c-0.78985-0.45381-1.26792-1.40994-1.15012-3.1282
		c0.09354-1.32333,0.94572-1.57275,1.37875-1.61432c0.13164-0.01734,0.22518-0.0104,0.24597-0.0104l7.52837-0.02177
		c0.80018-0.00231,1.57909,0.34324,2.05894,0.98358c0.19293,0.25746,0.33074,0.55448,0.33074,0.87769
		C40.1419,40.96703,40.1696,41.34117,40.1315,41.72916z"/>
	<path style="opacity:0.45;fill:#D7AA83;" d="M33.10107,20.5311c0,0-1.4054,3.9485,0.23423,6.05659
		c0,0-1.87386,4.08234,0.06693,6.25736c0,0-1.37194,4.04888,0.43501,5.68851c0,0-2.20848,3.14541-0.80309,5.42081
		c0,0-3.84811-0.435-3.88157-2.37579c-0.03346-1.94078,0.13385-2.24194,0.13385-2.24194l1.1377-0.83655
		c0,0-1.53925-0.435-1.57271-1.74001c-0.03346-1.30501-0.23423-2.44271-0.06693-2.64349
		c0.16731-0.20077,1.17117-1.33847,1.17117-1.33847s-1.77348-0.06692-1.90733-1.53924
		c-0.13385-1.47232-0.53539-2.2754,0.03346-2.71041c0.56885-0.435,2.20848-1.53924,2.20848-1.53924s-1.67309,0.13385-2.00771-1.1377
		c-0.33462-1.27155-0.74228-3.70532-0.09568-4.18711C29.58122,20.62549,33.10107,20.5311,33.10107,20.5311z"/>
	<path style="fill:#D7A881;" d="M42.31742,26.22332c-0.53001,0.50232-1.16744,0.65128-1.46536,0.82102
		c-0.54388,0.30832-6.55082,0.46421-9.06932,0.46421c-2.51849,0-4.10856-0.73788-4.45845-2.94459
		c-0.21478-1.36146,0.2321-2.26561,0.85912-2.8961c-0.50923,1.31987-0.42039,4.12429,2.09463,4.5677
		C32.88662,26.69631,39.07492,26.28567,42.31742,26.22332z"/>
	<path style="fill:#D7A881;" d="M42.48372,32.40003c-0.74135,0.76211-1.82565,0.7933-1.82565,0.7933
		s-9.37764,0.07967-10.69751,0.04157c-1.31987-0.03463-2.6917-0.74826-2.6917-3.1559c0-1.93304,1.83258-2.59123,2.54968-2.77137
		h0.0277c0,0-1.81525,0.90762-1.53811,3.07623c0.27715,2.16513,3.18709,2.01618,3.18709,2.01618H42.48372z"/>
	<path style="fill:#D7A881;" d="M41.39942,38.25454c-0.63743,0.67206-1.58315,0.72056-1.58315,0.72056
		s-8.14091,0.10392-9.29103,0.02079c-1.15359-0.08661-2.45267-1.23673-2.45267-3.43303c0-1.70788,0.98385-2.24136,1.42034-2.39378
		c-0.26675,0.46768-0.81757,1.58315-0.46075,2.88223c0.4746,1.72173,1.26789,2.1201,2.28984,2.19632
		C32.15342,38.30998,38.91556,38.27186,41.39942,38.25454z"/>
	<path style="fill:#D7A881;" d="M40.1315,41.72916c-0.07967,0.8799-0.49191,1.82218-2.28291,2.42149
		c-2.58085,0.85912-7.31298-0.14549-8.09934-0.5993c-0.78985-0.45381-1.26792-1.40994-1.15012-3.1282
		c0.09354-1.32333,0.94572-1.57275,1.37875-1.61432c-0.17668,0.2806-0.63049,1.01155-0.48845,2.2344
		c0.18359,1.6074,0.67846,1.98698,1.73211,2.19633c3.86552,0.76804,7.2402,0.62009,8.13744-0.40184
		C39.71235,42.43932,39.96176,42.05133,40.1315,41.72916z"/>
	<path style="fill:#D7A881;" d="M30.85813,43.40026l-1.48302,0.22036c-7.24022,0.68246-11.75756-3.71016-11.75756-3.71016
		l-7.48617,1.6074c0,0-0.92841-0.194-2.01965-1.29217c2.54966-0.56467,7.58318-1.66282,7.58318-1.66282
		s-1.01848-1.3268-0.91803-3.21133c0,0,5.0439,7.54161,14.57397,7.1848L30.85813,43.40026z"/>
	<path style="fill:#E8CAAA;" d="M21.9998,15.22096c-0.45728,2.38685-3.99425,5.5566-5.64669,7.34761
		c-1.65588,1.79099-1.79446,4.13628-1.79446,4.13628c-0.77945-1.56236,0.0485-3.40186,0.0485-3.40186s-2.89608,0-5.00927,0.13856
		c-1.24364,0.08316-2.55313,0.78638-3.43997,1.37877c0.92496-1.77021,1.99193-2.60857,1.99193-2.60857l6.9319,0.24597
		c1.27483-2.40764,1.98501-1.82218,4.64553-5.16169c1.42726-1.79446,2.11316-3.18015,2.34179-4.42726
		C22.15914,13.51657,22.17301,14.32027,21.9998,15.22096z"/>
	<path style="fill:#E8CAAA;" d="M43.13844,24.05818c-0.01731,0.51616-0.10392,0.93881-0.23557,1.28176
		c-0.19746-1.59008-0.86605-3.05198-1.93302-3.6513c-1.25407-0.70669-7.19865-0.76905-9.22177-0.70669
		c-1.9642,0.06235-3.46766,0.64781-3.5612,0.68246c0.39146-0.39146,0.85221-0.67553,1.27136-0.90071
		c1.0843-0.57852,4.6871-0.46419,4.6871-0.46419s4.30255-0.03812,5.50463,0.0381
		C40.85206,20.41729,43.21466,21.26949,43.13844,24.05818z"/>
</g>
<path style="fill:#E8CAAA;" d="M29.84003,10.03003c-1.57001-4.68005-5.01601-6.08393-6.95601-5.1839
	c-1.42999,0.66003-1.40403,2.66388-1.39402,3.75385C20.96002,6.95001,20.56,5.56,22.13,4.17999
	c1.91998-1.66998,4.58002-0.37,6.56,1.97998C29.77002,7.44,29.97998,8.56,29.84003,10.03003z"/>
</svg>
