<svg xmlns="http://www.w3.org/2000/svg" xmlns:xlink="http://www.w3.org/1999/xlink" viewBox="0 0 239.406 119.703">
  <defs>
    <style>
      .cls-1 {
        fill: #fff;
      }

      .cls-2 {
        fill: none;
      }

      .cls-3 {
        clip-path: url(#clip-path);
      }

      .cls-4 {
        clip-path: url(#clip-path-2);
      }

      .cls-5 {
        fill: url(#linear-gradient);
      }
    </style>
    <clipPath id="clip-path">
      <path id="Path_2559" data-name="Path 2559" class="cls-1" d="M261.906,142.1,142.2,22.4,22.5,142.1Z" transform="translate(152.379 515.6)"/>
    </clipPath>
    <clipPath id="clip-path-2">
      <rect class="cls-2" width="360" height="120"/>
    </clipPath>
    <linearGradient id="linear-gradient" x1="-0.036" y1="0.5" x2="1" y2="0.5" gradientUnits="objectBoundingBox">
      <stop offset="0" stop-color="#007aff"/>
      <stop offset="0" stop-color="#06f9ff"/>
      <stop offset="1" stop-color="#007aff"/>
    </linearGradient>
  </defs>
  <g id="Group_2278" data-name="Group 2278" class="cls-3" transform="translate(414.285 657.703) rotate(180)">
    <g id="Repeat_Grid_28" data-name="Repeat Grid 28" class="cls-4" transform="translate(175 538)">
      <g transform="translate(-128 -655)">
        <rect id="Rectangle_25525" data-name="Rectangle 25525" class="cls-5" width="240" height="3" transform="translate(128 655)"/>
      </g>
      <g transform="translate(-128 -642)">
        <rect id="Rectangle_25526" data-name="Rectangle 25526" class="cls-5" width="240" height="3" transform="translate(128 655)"/>
      </g>
      <g transform="translate(-128 -629)">
        <rect id="Rectangle_25527" data-name="Rectangle 25527" class="cls-5" width="240" height="3" transform="translate(128 655)"/>
      </g>
      <g transform="translate(-128 -616)">
        <rect id="Rectangle_25528" data-name="Rectangle 25528" class="cls-5" width="240" height="3" transform="translate(128 655)"/>
      </g>
      <g transform="translate(-128 -603)">
        <rect id="Rectangle_25529" data-name="Rectangle 25529" class="cls-5" width="240" height="3" transform="translate(128 655)"/>
      </g>
      <g transform="translate(-128 -590)">
        <rect id="Rectangle_25530" data-name="Rectangle 25530" class="cls-5" width="240" height="3" transform="translate(128 655)"/>
      </g>
      <g transform="translate(-128 -577)">
        <rect id="Rectangle_25531" data-name="Rectangle 25531" class="cls-5" width="240" height="3" transform="translate(128 655)"/>
      </g>
      <g transform="translate(-128 -564)">
        <rect id="Rectangle_25532" data-name="Rectangle 25532" class="cls-5" width="240" height="3" transform="translate(128 655)"/>
      </g>
      <g transform="translate(-128 -551)">
        <rect id="Rectangle_25533" data-name="Rectangle 25533" class="cls-5" width="240" height="3" transform="translate(128 655)"/>
      </g>
      <g transform="translate(-128 -538)">
        <rect id="Rectangle_25534" data-name="Rectangle 25534" class="cls-5" width="240" height="3" transform="translate(128 655)"/>
      </g>
    </g>
  </g>
</svg>
